<?xml version="1.0" encoding="UTF-8"?><svg id="Ebene_1" xmlns="http://www.w3.org/2000/svg" viewBox="0 0 800 79"><path d="m770.04,41.07L24.27,77.8c-13,.64-23.71-10.18-23.08-23.32L4.34-11.18c.41-8.54.41-17.09,0-25.63L1.12-104.66c-.6-12.7,9.43-23.34,22.01-23.34h744.53c12.92,0,23.07,11.19,21.95,24.2l-.66,7.68c-.81,9.41-1.06,18.85-.76,28.29l2.79,85.93c.39,12.15-8.93,22.38-20.95,22.97Z" style="fill:#141414; stroke-width:0px;"/><path d="m13.64-109.56l308.36-87.42c5.38-1.52,11.56,7.26,13.33,18.93l8.83,58.32c1.15,7.58,2.47,15.15,3.96,22.67l11.85,59.78c2.22,11.19-.36,21.34-5.66,22.26L40.79,39.82c-5.44.95-11.45-8.2-12.99-19.79l-.91-6.84c-1.11-8.38-2.47-16.75-4.06-25.08l-14.47-75.8c-2.05-10.72.3-20.45,5.27-21.86Z" style="fill:#262626; stroke-width:0px;"/><path d="m361.82-71.47l426.89,6.29c7.44.11,13.31,5.23,12.64,11.03l-3.34,29c-.43,3.77-.64,7.56-.61,11.36l.25,30.16c.05,5.65-5.93,10.06-13.12,9.67L359.2,3.51c-7.38-.39-12.92-5.65-11.97-11.39l.56-3.38c.68-4.14,1.05-8.32,1.1-12.51l.42-38.16c.06-5.4,5.63-9.65,12.51-9.54Z" style="fill:#262626; stroke-width:0px;"/></svg>