<?xml version="1.0" encoding="utf-8"?>
<!-- Generator: Adobe Illustrator 19.1.0, SVG Export Plug-In . SVG Version: 6.00 Build 0)  -->
<svg version="1.1" id="Layer_1" xmlns="http://www.w3.org/2000/svg" xmlns:xlink="http://www.w3.org/1999/xlink" x="0px" y="0px"
	 viewBox="0 0 33.9 44.5" style="enable-background:new 0 0 33.9 44.5;" xml:space="preserve">
<style type="text/css">
	.st0{fill:#FFFFFF;}
</style>
<path class="st0" d="M16.9,44.5c0.8,0,1.5-0.7,1.5-1.5V11.2l12.9,12.9c0.3,0.3,0.7,0.4,1.1,0.4c0.4,0,0.8-0.1,1.1-0.4
	c0.6-0.6,0.6-1.5,0-2.1L18.2,6.8c-0.6-0.6-1.5-0.6-2.1,0L0.8,22c-0.6,0.6-0.6,1.5,0,2.1c0.6,0.6,1.5,0.6,2.1,0l12.5-12.5V43
	C15.4,43.8,16.1,44.5,16.9,44.5z"/>
<path class="st0" d="M32.4,3H1.5C0.7,3,0,2.3,0,1.5v0C0,0.7,0.7,0,1.5,0l30.9,0c0.8,0,1.5,0.7,1.5,1.5v0C33.9,2.3,33.2,3,32.4,3z"/>
</svg>
