<?xml version="1.0" encoding="UTF-8"?><svg id="Ebene_1" xmlns="http://www.w3.org/2000/svg" viewBox="0 0 100 100"><path d="m36.8,50.28c0-2.99.79-6.83.79-6.83l-9.27,19.69s-6.34,0-9.27-4.57l-6.52-14.75s.67,3.47.67,6.46v20.42s-10.48,0-10.48-4.69V25.78h6.46c.37,0,4.94-.06,6.83,4.08l8.96,19.87,11.22-23.96c2.32,0,11.09,0,11.09,4.69v40.23s-10.48,0-10.48-4.69v-15.73Z" style="fill:#fff; stroke-width:0px;"/><path d="m94.44,65.15c-7.68,6.05-15.1,9.07-22.27,9.07-6.4,0-11.41-2.37-15.02-7.11-2.62-3.39-3.94-7.25-3.94-11.58,0-1.6.19-3.27.58-5,1.31-6.21,4.62-11.39,9.94-15.52,4.51-3.59,10.18-6.23,16.99-7.93,1.41-.32,2.26-.48,2.54-.48,2.18,0,4.56.9,7.15,2.7,1.73,1.19,3.06,3.02,3.98,5.5.45,1.09.59,1.99.43,2.7-.35,1.66-.9,3.15-1.63,4.46-1.02,1.86-2.16,2.78-3.41,2.78-2.18,0-3.26-1.54-3.26-4.61,0,.1.02-.53.05-1.87-2.02-.83-4.13-1.25-6.34-1.25-4.13,0-7.84,1.38-11.14,4.15-3.3,2.77-5.39,6.18-6.29,10.25-.22,1.02-.34,1.94-.34,2.74,0,2.78,1.12,4.83,3.36,6.14,1.76,1.06,4.14,1.58,7.15,1.58,5.6,0,11.41-1.39,17.42-4.18,1.63-.74,2.82-1.1,3.55-1.1,1.02,0,1.83.41,2.42,1.22.59.82.89,1.75.89,2.81,0,1.57-.94,3.07-2.83,4.51Z" style="fill:#fff; stroke-width:0px;"/></svg>