<?xml version="1.0" encoding="UTF-8"?><svg id="Ebene_2" xmlns="http://www.w3.org/2000/svg" viewBox="0 0 303.85 113.9"><g id="Ebene_1-2"><path d="m46.28,101.38c-8.42,6.63-16.55,9.94-24.41,9.94-7.01,0-12.5-2.6-16.46-7.79-2.88-3.72-4.31-7.95-4.31-12.69,0-1.76.21-3.58.63-5.48,1.44-6.81,5.07-12.48,10.89-17.01,4.94-3.93,11.15-6.83,18.62-8.69,1.54-.35,2.47-.53,2.79-.53,2.38,0,5,.99,7.84,2.96,1.89,1.3,3.35,3.31,4.37,6.02.49,1.2.65,2.18.47,2.96-.39,1.82-.98,3.45-1.79,4.89-1.12,2.03-2.37,3.05-3.73,3.05-2.38,0-3.58-1.68-3.58-5.05,0,.1.02-.58.05-2.05-2.21-.91-4.52-1.37-6.94-1.37-4.52,0-8.59,1.52-12.2,4.55-3.61,3.03-5.91,6.78-6.89,11.23-.25,1.12-.37,2.12-.37,3,0,3.05,1.23,5.29,3.68,6.73,1.93,1.16,4.54,1.74,7.84,1.74,6.14,0,12.5-1.53,19.09-4.58,1.79-.81,3.08-1.21,3.89-1.21,1.12,0,2.01.45,2.66,1.34.65.89.97,1.92.97,3.08,0,1.72-1.03,3.37-3.1,4.94Z" style="stroke-width:0px;"/><path d="m61.48,72.14c-.91-.17-1.68-.63-2.29-1.37-.61-.74-.92-1.58-.92-2.53,0-2.21,1.26-3.66,3.79-4.37,6.21-1.82,12.75-2.73,19.62-2.73,4.66,0,8.66.65,11.99,1.95,4.7,1.82,7.05,4.66,7.05,8.52,0,.7-.09,1.44-.26,2.21-1.47,6.87-7.99,13.89-19.57,21.04,5.19,2.63,9.33,5.61,12.41,8.94.98,1.05,1.47,2.28,1.47,3.68,0,1.72-.6,3.22-1.81,4.5s-2.64,1.92-4.29,1.92c-1.19,0-2.33-.53-3.42-1.58-2.53-2.39-5.65-5.17-9.36-8.36-1.72-1.51-3.91-2.26-6.57-2.26-.39,0-.79.02-1.21.05-.67.32-1.32.61-1.95.89-1.05,4.66-3.3,7-6.73,7-1.37,0-2.54-.37-3.52-1.11-1.12-.77-1.68-1.82-1.68-3.16,0-.84.23-1.98.68-3.42.21-.56.56-1.7,1.05-3.42,2.14-7.47,3.98-16.27,5.52-26.41Zm9.84-2.1c-1.02,7.96-2.02,14.85-3,20.67,5.01-1.65,9.52-3.94,13.52-6.89,5.79-4.38,8.68-8.05,8.68-10.99,0-1.58-.93-2.75-2.79-3.52-1.33-.56-2.95-.84-4.84-.84-3.02,0-6.87.53-11.57,1.58Z" style="stroke-width:0px;"/><path d="m129.18,106.38c0-.56.1-1.33.32-2.31-8.07,3.75-13.94,5.63-17.62,5.63-5.12,0-7.68-2.89-7.68-8.68,0-2.1.26-4.35.79-6.73.25-1.02.67-2.95,1.26-5.79,2.21-10.03,4.08-17.97,5.63-23.83.63-2.45,2.09-3.68,4.37-3.68,3.09,0,4.63,1.33,4.63,4,0,1.19-.98,5.4-2.95,12.62-2.53,9.22-3.68,14.87-3.47,16.94.21,1.65,1.12,2.47,2.73,2.47,2.56,0,7.77-1.84,15.62-5.52,1.37-5.89,2.47-11.55,3.31-16.99.74-4.7,1.33-8.05,1.79-10.05.28-1.47,1.03-2.67,2.24-3.6,1.21-.93,2.57-1.39,4.08-1.39,2.35,0,3.47,1.21,3.37,3.63,0,.35-.3,2.6-.89,6.73-2.31,15.81-4.02,26.28-5.1,31.4-.67,3.02-1.31,5.12-1.95,6.31-1.23,2.17-3.03,3.26-5.42,3.26-1.33,0-2.51-.41-3.52-1.24-1.02-.82-1.53-1.88-1.53-3.18Z" style="stroke-width:0px;"/><path d="m195.29,107.54c0,1.86-.74,3.28-2.21,4.26-1.23.81-2.84,1.21-4.84,1.21-2.7,0-4.52-.74-5.47-2.21-6.98-4.49-12.59-13.22-16.83-26.19-.84,5.79-1.42,9.57-1.74,11.36-1.02,5.79-2.02,9.43-3,10.94-1.16,1.75-2.81,2.63-4.94,2.63-1.37,0-2.58-.35-3.63-1.05-1.16-.77-1.74-1.81-1.74-3.1,0-.88.23-2.03.68-3.47.21-.63.56-1.79,1.05-3.47.77-2.56,1.72-6.52,2.84-11.89,1.09-5.16,1.88-9.19,2.37-12.1.14-1.05.44-3.1.89-6.15.25-1.51,1.07-2.7,2.47-3.58,1.23-.74,2.66-1.11,4.31-1.11,1.4,0,2.35.88,2.84,2.63.21.77.98,2.61,2.31,5.52,2.84,6.24,4.91,10.5,6.21,12.78,2.8,4.91,5.72,8.57,8.73,10.99,1.12-4.45,1.79-7.31,2-8.57.1-.91.35-2.7.74-5.36.56-3.61,1.54-8.77,2.95-15.46.32-1.47,1.08-2.71,2.29-3.71s2.57-1.5,4.08-1.5c2.24,0,3.35,1.23,3.31,3.68-.04,3.86-.86,11.4-2.47,22.62-.42,3.05-1.35,9.03-2.79,17.94l-.42,2.37Z" style="stroke-width:0px;"/><path d="m242.9,105.17c-6.73,4.03-12.96,6.05-18.67,6.05-6.77,0-11.89-2.56-15.36-7.68-2.35-3.44-3.52-7.31-3.52-11.62,0-1.79.23-3.75.68-5.89,1.82-8.63,7.29-15.73,16.41-21.3,3.79-2.31,8.56-4.19,14.31-5.63,1.79-.46,2.84-.68,3.16-.68,2.03,0,4.29.77,6.76,2.31,2.47,1.54,4.09,3.24,4.87,5.1.95,2.17,1.33,3.63,1.16,4.37-.18.84-.75,1.63-1.74,2.37-.98.74-1.89,1.11-2.73,1.11-.95,0-1.68-.42-2.21-1.26-3.02-1.72-6.24-2.58-9.68-2.58-4.87,0-9.39,1.72-13.54,5.15-4.16,3.44-6.74,7.56-7.76,12.36-.25,1.09-.37,2-.37,2.73,0,5.15,3.42,7.73,10.26,7.73,5.82,0,12.1-1.54,18.83-4.63,1.72-.77,3-1.16,3.84-1.16,1.09,0,1.96.46,2.63,1.37.67.91,1,1.93,1,3.05,0,2.53-2.77,5.44-8.31,8.73Z" style="stroke-width:0px;"/><path d="m264.67,65.83l-.05-.05c.25-1.33,1-2.46,2.26-3.39s2.59-1.39,4-1.39c2.31,0,3.42,1.16,3.31,3.47-.07,2.17-.33,4.61-.79,7.31l-1.26,7.21-1.89,12.1c5.75-1.3,12.05-2.23,18.88-2.79.67-2.98,1.96-10.17,3.89-21.57v-.32c.21-1.33.98-2.42,2.31-3.26,1.26-.84,2.59-1.26,4-1.26,2.35,0,3.49,1.14,3.42,3.42-.07,2.81-.47,6.35-1.21,10.62l-3.58,20.78c-.95,5.37-1.82,8.8-2.63,10.31-1.23,2.35-3.07,3.52-5.52,3.52-1.23,0-2.37-.35-3.42-1.05-1.26-.81-1.89-1.79-1.89-2.95,0-.32.05-.63.16-.95l.16-.53c.28-.95,1.11-4.03,2.47-9.26-2.77.03-5.94.51-9.52,1.42-1.68.46-4.73,1.4-9.15,2.84l-.42,2.16c-.14.53-.26,1.05-.37,1.58-.84,3.89-3,5.84-6.47,5.84-1.37,0-2.53-.33-3.47-1-1.16-.74-1.74-1.75-1.74-3.05,0-.35.05-.72.16-1.11l.1-.26,4.68-18.88c.88-3.51,1.98-9.57,3.31-18.2l.21-1.31h.05Z" style="stroke-width:0px;"/><path d="m34.08,26.15c0-2.99.79-6.83.79-6.83l-9.27,19.69s-6.34,0-9.27-4.57l-6.52-14.75s.67,3.47.67,6.46v20.42s-10.48,0-10.48-4.69V1.65h6.46c.37,0,4.94-.06,6.83,4.08l8.96,19.87L33.47,1.65c2.32,0,11.09,0,11.09,4.69v40.23s-10.49,0-10.49-4.69v-15.73Z" style="fill:#f71616; stroke-width:0px;"/><path d="m83.51,19.81l5.36,16.21c1.34,4.15,2.32,7.32,3.72,9.33,0,0-3.11,1.04-4.82,1.04-6.46,0-7.92-4.51-9.51-9.14l-.91-2.68h-13.65l-.91,2.68c-1.58,4.63-3.05,9.14-9.51,9.14-1.65,0-4.75-1.04-4.75-1.04,1.4-2.01,2.32-5.18,3.66-9.33l5.36-16.21C61.56,7.68,68.88.98,70.52,0c1.71.98,8.96,7.74,12.98,19.81Zm-16.09,1.58l-1.58,5.73h9.39l-1.58-5.73c-.91-3.29-3.11-9.21-3.11-9.21,0,0-2.19,5.91-3.11,9.21Z" style="fill:#f71616; stroke-width:0px;"/><path d="m104.29,45.96c-.73,0-7.74-.24-7.74-4.69V1.65h18.9c10.3,0,20.06,3.41,20.06,15.73v12.86c0,12.31-9.75,15.73-20.06,15.73h-11.16Zm2.74-36.88v29.5h8.41c5.36,0,9.57-2.13,9.57-8.96v-11.7c0-6.77-4.21-8.84-9.57-8.84h-8.41Z" style="fill:#f71616; stroke-width:0px;"/><path d="m171.83,30.66s-.85-4.08-.85-7.99V1.65s10.48,0,10.48,4.69v40.23c-11.22,0-13.23-4.75-13.23-4.75l-15.61-24.93s.67,3.78.67,7.13v22.55s-10.48,0-10.48-4.69V1.65c5.97,0,10.73.12,13.17,3.84l15.85,25.18Z" style="fill:#f71616; stroke-width:0px;"/><path d="m199.87,26.4v12.19h21.76c0,.43-.12,7.38-5.67,7.38h-18.71s-7.86,0-7.86-4.69V1.65h32.25s0,7.44-5.67,7.44h-16.09v9.88h11.46c6.03,0,7.86-.98,7.86-.98,0,4.21-.85,8.41-6.89,8.41h-12.44Z" style="fill:#f71616; stroke-width:0px;"/><path d="m244.12.91c9.94,0,17.01,2.07,17.01,7.92,0,1.95-.79,4.33-2.5,7.19.06-.3.06-.61.06-.85,0-5.43-8.78-6.52-14.51-6.52-4.51,0-7.74.79-7.74,4.51,0,8.9,26.15-.67,26.15,19.45,0,9.33-8.05,14.02-19.45,14.02-7.99,0-16.46-2.5-16.46-8.17,0-1.77.79-3.84,2.74-6.28,0,5.55,8.6,6.71,13.72,6.71,5.91,0,8.6-1.95,8.6-5.55,0-10.06-26.15-.49-26.15-19.02,0-10.3,8.35-13.41,18.53-13.41Z" style="fill:#f71616; stroke-width:0px;"/><path d="m285.38.91c9.94,0,17.01,2.07,17.01,7.92,0,1.95-.79,4.33-2.5,7.19.06-.3.06-.61.06-.85,0-5.43-8.78-6.52-14.51-6.52-4.51,0-7.74.79-7.74,4.51,0,8.9,26.15-.67,26.15,19.45,0,9.33-8.05,14.02-19.45,14.02-7.99,0-16.46-2.5-16.46-8.17,0-1.77.79-3.84,2.74-6.28,0,5.55,8.6,6.71,13.72,6.71,5.91,0,8.59-1.95,8.59-5.55,0-10.06-26.15-.49-26.15-19.02,0-10.3,8.35-13.41,18.53-13.41Z" style="fill:#f71616; stroke-width:0px;"/></g></svg>